<?xml version="1.0" encoding="utf-8"?>
<!-- Generator: Adobe Illustrator 28.3.0, SVG Export Plug-In . SVG Version: 6.00 Build 0)  -->
<svg version="1.1" id="Camada_1" xmlns="http://www.w3.org/2000/svg" xmlns:xlink="http://www.w3.org/1999/xlink" x="0px" y="0px"
	 viewBox="0 0 1080 1080" style="enable-background:new 0 0 1080 1080;" xml:space="preserve">
<style type="text/css">
	.st0{fill:#1D1D1B;}
</style>
<g>
	<g>
		<polygon class="st0" points="99.27,425.82 96.46,560.92 171.67,697.39 204.17,705.18 420.36,740.84 394.7,661.23 		"/>
		<polygon class="st0" points="292.12,972.98 310.5,956.81 447.06,823.64 444.96,817.13 184.45,912.46 221.13,963.32 		"/>
		<polygon class="st0" points="220.23,871.87 245,864.62 245,864.63 437.55,794.15 429.47,769.06 112.82,716.79 138.8,810.16 		"/>
		<polygon class="st0" points="174.99,444.69 213.37,479.36 390.96,620.83 446.48,548.71 185.58,53.22 135.17,218.9 		"/>
		<polygon class="st0" points="635.07,817.13 632.97,823.64 769.79,957.08 769.79,957.08 787.91,972.98 858.89,963.32 
			895.56,912.46 		"/>
		<polygon class="st0" points="650.56,769.05 642.47,794.15 835.44,864.75 859.78,871.87 941.21,810.16 967.22,716.79 		"/>
		<polygon class="st0" points="980.74,425.82 685.32,661.23 659.65,740.84 876.44,705.06 908.34,697.39 983.54,560.92 		"/>
		<polygon class="st0" points="440.36,610.03 540.03,739.59 639.64,610.03 540.03,480.41 		"/>
		<polygon class="st0" points="689.11,620.78 867.04,479.03 905,444.69 944.85,218.9 894.42,53.22 633.53,548.69 		"/>
		<polygon class="st0" points="665.18,638.46 658.3,629.51 540.03,783.31 421.7,629.5 414.81,638.46 540.03,1026.78 		"/>
	</g>
</g>
</svg>
